<svg width="384" height="384" viewBox="0 0 384 384" fill="none" xmlns="http://www.w3.org/2000/svg">
<g opacity="0.3">
<path d="M153.978 193.947C153.978 200.022 150.625 204.947 146.489 204.947C142.353 204.947 139 200.022 139 193.947C139 187.872 142.353 182.947 146.489 182.947C150.625 182.947 153.978 187.872 153.978 193.947Z" fill="black"/>
<path d="M245 193.947C245 200.022 241.647 204.947 237.511 204.947C233.375 204.947 230.022 200.022 230.022 193.947C230.022 187.872 233.375 182.947 237.511 182.947C241.647 182.947 245 187.872 245 193.947Z" fill="black"/>
<path d="M201.218 218.551C201.218 223.005 195.457 227.192 191.424 227.192C187.392 227.192 181.631 223.005 181.631 218.551C181.631 214.097 186.016 212.214 191.424 212.214C196.833 212.214 201.218 214.097 201.218 218.551Z" fill="black"/>
<path d="M153.168 222.081C152.388 220.619 150.571 220.066 149.109 220.846C147.648 221.626 147.095 223.443 147.875 224.905L153.168 222.081ZM236.125 224.905C236.905 223.443 236.352 221.626 234.89 220.846C233.428 220.066 231.611 220.619 230.831 222.081L236.125 224.905ZM192.576 218.551H189.576C189.576 219.479 189.428 220.431 189.132 221.393L192 222.275L194.867 223.157C195.326 221.666 195.576 220.12 195.576 218.551H192.576ZM192 222.275L189.132 221.393C187.198 227.68 178.928 233.986 168.38 233.986V236.986V239.986C180.936 239.986 191.989 232.514 194.867 223.157L192 222.275ZM168.38 236.986V233.986C162.907 233.986 157.352 229.922 153.168 222.081L150.521 223.493L147.875 224.905C152.539 233.647 159.71 239.986 168.38 239.986V236.986ZM191.424 218.551H188.424C188.424 220.12 188.674 221.666 189.132 223.157L192 222.275L194.867 221.393C194.571 220.431 194.424 219.479 194.424 218.551H191.424ZM192 222.275L189.132 223.157C192.011 232.514 203.063 239.986 215.619 239.986V236.986V233.986C205.071 233.986 196.801 227.68 194.867 221.393L192 222.275ZM215.619 236.986V239.986C224.29 239.986 231.461 233.647 236.125 224.905L233.478 223.493L230.831 222.081C226.647 229.922 221.092 233.986 215.619 233.986V236.986Z" fill="black"/>
<path d="M54 220.377C54 284.867 115.785 314.947 192 314.947C268.215 314.947 330 284.867 330 220.377C330 205.859 326.869 191.623 321.147 178.277C328.971 160.848 330.085 112.458 329.995 83.2382C329.962 72.3202 318.578 65.5619 309.007 70.816C290.658 80.889 264.666 96.246 250.89 109.328C233.029 101.45 213.066 96.9473 192 96.9473C170.934 96.9473 150.971 101.45 133.11 109.328C119.334 96.246 93.3418 80.889 74.9932 70.816C65.4225 65.5619 54.0382 72.3202 54.0048 83.2383C53.9151 112.458 55.0288 160.848 62.853 178.277C57.1311 191.623 54 205.859 54 220.377Z" stroke="black" stroke-width="7"/>
<path d="M80.88 106.895C75.9199 104.154 70.0198 107.679 70.0025 113.374C69.956 128.616 70.5332 153.856 74.5882 162.947C74.5882 162.947 82.5 149.447 90.5 141.947C98.5 134.447 111 126.983 111 126.983C103.86 120.159 90.3894 112.149 80.88 106.895Z" stroke="black" stroke-width="7" stroke-linejoin="round"/>
<path d="M305.12 106.895C310.08 104.154 315.98 107.679 315.998 113.374C316.044 128.616 315.467 153.856 311.412 162.947C311.412 162.947 303.5 149.447 295.5 141.947C287.5 134.447 275 126.983 275 126.983C282.14 120.159 295.611 112.149 305.12 106.895Z" stroke="black" stroke-width="7" stroke-linejoin="round"/>
<path d="M29 230.335C34.8106 227.189 50.5121 221.704 66.8328 224.93M32.5569 251.947C37.4493 247.49 51.3872 238.373 68 237.565" stroke="black" stroke-width="5" stroke-linecap="round"/>
<path d="M355 230.335C349.189 227.189 333.488 221.704 317.167 224.93M351.443 251.947C346.551 247.49 332.613 238.373 316 237.565" stroke="black" stroke-width="5" stroke-linecap="round"/>
</g>
</svg>
