<svg width="119" height="32" viewBox="0 0 119 32" fill="none" xmlns="http://www.w3.org/2000/svg">
<path d="M116.075 30.7202C116.303 30.7202 116.488 30.5346 116.488 30.3058V10.4144C116.488 10.1855 116.303 10 116.075 10H118.141C118.369 10 118.554 10.1855 118.554 10.4144V30.3058C118.554 30.5346 118.369 30.7202 118.141 30.7202H116.075Z" fill="#FF4A00"/>
<path d="M2.48422 30.7202C2.25609 30.7202 2.07116 30.5346 2.07116 30.3058V10.4144C2.07116 10.1855 2.25609 10 2.48422 10H0.418919C0.190793 10 0.00585938 10.1855 0.00585938 10.4144V30.3058C0.00585938 30.5346 0.190793 30.7202 0.418919 30.7202H2.48422Z" fill="#FF4A00"/>
<path fill-rule="evenodd" clip-rule="evenodd" d="M114.63 9.99847C114.858 9.99847 115.043 10.184 115.043 10.4129V30.3042C115.043 30.5331 114.858 30.7186 114.63 30.7186H109.404C109.132 30.7186 108.942 30.4489 109.033 30.1916L109.298 29.438C109.383 29.1955 109.043 28.9809 108.847 29.1473C107.316 30.4505 105.334 31.2367 103.168 31.2367C98.0348 31.2367 93.3574 26.3664 93.3574 20.3586C93.3574 14.3507 98.0348 9.48047 103.168 9.48047C105.334 9.48047 107.316 10.2667 108.847 11.5698C109.043 11.7362 109.383 11.5216 109.298 11.2791L109.033 10.5255C108.942 10.2682 109.132 9.99847 109.404 9.99847H114.63ZM99.5533 20.3586C99.5533 23.5055 101.634 26.0566 104.2 26.0566C106.767 26.0566 108.847 23.5055 108.847 20.3586C108.847 17.2116 106.767 14.6605 104.2 14.6605C101.634 14.6605 99.5533 17.2116 99.5533 20.3586Z" fill="black"/>
<path d="M76.8346 18.8059C76.8346 16.5173 78.6839 14.6619 80.9652 14.6619C83.2465 14.6619 85.0958 16.5173 85.0958 18.8059V30.3056C85.0958 30.5345 85.2807 30.72 85.5088 30.72H90.8786C91.1067 30.72 91.2917 30.5345 91.2917 30.3056V18.2879C91.2917 13.4245 87.3617 9.48186 82.5141 9.48186C80.3566 9.48186 78.3809 10.2628 76.8526 11.5583C76.8503 11.5603 76.8489 11.5632 76.8489 11.5663C76.8489 11.5694 76.8475 11.5724 76.8452 11.5744C76.8263 11.5905 76.8074 11.6067 76.7886 11.623C76.6408 11.7511 76.3769 11.5685 76.4572 11.3898L76.468 11.3658C76.719 10.807 76.8484 10.2008 76.8475 9.58774L76.8352 1.08958C76.8348 0.860948 76.65 0.675781 76.4221 0.675781H71.0517C70.8236 0.675781 70.6387 0.861316 70.6387 1.09019V30.3056C70.6387 30.5345 70.8236 30.72 71.0517 30.72H76.4215C76.6496 30.72 76.8346 30.5345 76.8346 30.3056V18.8059Z" fill="black"/>
<path d="M59.7961 9.48047C51.8447 9.48047 51.0186 14.1425 51.0186 16.2145C51.0186 18.2865 51.8447 21.3531 59.7961 22.9486C62.3777 23.4666 62.3777 24.0882 62.3777 24.5026C62.3777 24.917 62.3777 26.0566 59.7961 26.0566C58.0723 26.0566 57.4995 25.3637 57.3092 24.9033C57.2218 24.6919 57.0295 24.5026 56.8014 24.5026H51.4856C51.2374 24.5026 51.0502 24.7189 51.107 24.9612C51.4629 26.478 53.112 31.2367 59.7961 31.2367C67.7475 31.2367 68.5736 26.5746 68.5736 24.5026C68.5736 22.4306 67.7475 19.3026 59.7961 17.7685C57.1112 17.2505 57.2145 16.6289 57.2145 16.2145C57.2145 15.8001 57.2145 14.6605 59.7961 14.6605C61.5199 14.6605 62.0927 15.3534 62.283 15.8138C62.3704 16.0252 62.5627 16.2145 62.7908 16.2145H68.1066C68.3547 16.2145 68.542 15.9982 68.4852 15.7559C68.1293 14.2391 66.4802 9.48047 59.7961 9.48047Z" fill="black"/>
<path d="M26.2354 4.09461C26.2354 2.20644 27.761 0.675781 29.6431 0.675781H30.0562C31.9382 0.675781 33.4639 2.20644 33.4639 4.09461C33.4639 5.98278 31.9382 7.51344 30.0562 7.51344H29.6431C27.761 7.51344 26.2354 5.98278 26.2354 4.09461Z" fill="#FF4A00"/>
<path d="M38.6265 4.50815C38.6265 4.27928 38.8114 4.09375 39.0396 4.09375H44.4093C44.6375 4.09375 44.8224 4.27928 44.8224 4.50815V9.5846C44.8224 9.81347 45.0073 9.999 45.2355 9.999H48.5399C48.7681 9.999 48.953 10.1845 48.953 10.4134V14.7646C48.953 14.9935 48.7681 15.179 48.5399 15.179H42.9469C42.8308 15.179 42.803 15.3416 42.9125 15.3803L44.5468 15.959C44.712 16.0175 44.8224 16.1741 44.8224 16.3498V24.7103C44.8224 25.1681 45.1923 25.5391 45.6485 25.5391H48.5399C48.7681 25.5391 48.953 25.7247 48.953 25.9535V30.3048C48.953 30.5336 48.7681 30.7192 48.5399 30.7192H43.7897C40.9383 30.7192 38.6265 28.4 38.6265 25.5391V15.5934C38.6265 15.3646 38.4416 15.179 38.2134 15.179H31.0714C30.9553 15.179 30.9276 15.3416 31.037 15.3803L32.6713 15.959C32.8365 16.0175 32.9469 16.1741 32.9469 16.3498V30.3048C32.9469 30.5336 32.762 30.7192 32.5339 30.7192H27.164C26.9359 30.7192 26.751 30.5336 26.751 30.3048L26.751 10.4134C26.751 10.1845 26.936 9.999 27.1641 9.999H38.2134C38.4416 9.999 38.6265 9.81347 38.6265 9.5846V4.50815Z" fill="black"/>
<path d="M9.7125 18.8045C9.7125 16.5159 11.5618 14.6605 13.8431 14.6605C16.1244 14.6605 17.9737 16.5159 17.9737 18.8045V30.3042C17.9737 30.5331 18.1586 30.7186 18.3868 30.7186H23.7565C23.9847 30.7186 24.1696 30.5331 24.1696 30.3042V18.2865C24.1696 13.4231 20.2397 9.48047 15.3921 9.48047C13.2266 9.48047 11.2441 10.2673 9.7134 11.5714C9.71305 11.5717 9.7125 11.5715 9.7125 11.571C9.7125 11.5705 9.71195 11.5703 9.71159 11.5706C9.62196 11.6469 9.53389 11.725 9.44742 11.8048C9.31571 11.9264 9.08466 11.7831 9.14423 11.6137L9.52708 10.5255C9.61759 10.2682 9.42735 9.99847 9.1554 9.99847H3.92966C3.70153 9.99847 3.5166 10.184 3.5166 10.4129V30.3042C3.5166 30.5331 3.70153 30.7186 3.92966 30.7186H9.29944C9.52756 30.7186 9.7125 30.5331 9.7125 30.3042V18.8045Z" fill="black"/>
</svg>
